<svg xmlns="http://www.w3.org/2000/svg" width="22" height="24" viewBox="0 0 22 24"><g><g><path d="M.155 20.028A.528.528 0 0 1 0 19.636v-2.182c0-.16.052-.289.155-.39a.535.535 0 0 1 .395-.155H4.4v-2.012H.55a.535.535 0 0 1-.395-.153.528.528 0 0 1-.155-.392v-2.54a.54.54 0 0 1 .55-.545H4.4V.545a.53.53 0 0 1 .155-.392A.54.54 0 0 1 4.95 0h9.264c2.291 0 4.162.694 5.612 2.08C21.275 3.466 22 5.256 22 7.449c0 2.193-.725 3.984-2.174 5.369-1.45 1.388-3.32 2.079-5.612 2.079H8.37v2.012h8.68a.525.525 0 0 1 .55.545v2.182a.528.528 0 0 1-.55.545H8.37v3.274a.51.51 0 0 1-.163.391.548.548 0 0 1-.386.155H4.95a.54.54 0 0 1-.396-.155.525.525 0 0 1-.155-.391V20.18H.55a.53.53 0 0 1-.395-.153zm8.215-8.761h5.5c1.215 0 2.194-.352 2.94-1.057.744-.703 1.116-1.625 1.116-2.76 0-1.137-.372-2.058-1.117-2.762-.745-.705-1.724-1.056-2.939-1.056h-5.5z"/></g></g></svg>